<svg width="1680" height="60" viewBox="0 0 1680 60" fill="none" xmlns="http://www.w3.org/2000/svg">
<g clip-path="url(#clip0_2410_218723)">
<rect width="1680" height="60" fill="url(#paint0_linear_2410_218723)"/>
<path d="M1012.41 105.046L1331.07 127.746C1331.25 127.759 1331.4 127.77 1331.59 127.784C1363.42 129.304 1409.85 129.563 1424.46 104.97C1424.84 104.348 1425.05 103.8 1425.18 103.136C1452.15 42.1918 1461.4 24.7394 1477.6 -32.9245C1477.83 -34.0097 1477.75 -34.9576 1477.36 -36.0384C1480.69 -61.9461 1448.54 -72.5525 1416.77 -80.4715C1415.02 -80.9021 1413.44 -81.1001 1411.59 -81.0974C1222.69 -81.2962 1033.81 -81.4936 844.926 -81.691C843.775 -81.6873 842.794 -81.6225 841.704 -81.4553C799.253 -74.943 774.82 -59.6918 768.261 -35.81C768.043 -35.0421 768.009 -34.3589 768.12 -33.5676C778.81 42.7018 779.123 -21.6516 789.812 54.6299C789.859 54.927 789.91 55.1756 789.997 55.4633C798.269 83.5967 823.339 98.4203 875.647 101.681C875.647 101.681 874.244 104.421 871.539 108.771C863.051 122.391 844.204 139.558 812.054 150.575C807.259 152.216 802.663 153.639 798.243 154.867C792.577 156.447 747.112 158.68 748.291 162.62C749.451 166.559 796.897 170.992 803.178 171.5C864.194 176.459 954.71 171.681 998.86 109.847C1001.24 106.503 1006.51 104.638 1012.43 105.06L1012.41 105.046Z" fill="black"/>
<path d="M980.103 99.5776L1341.97 125.356C1375.07 126.948 1405.89 126.004 1420.73 99.8983C1420.78 99.8264 1420.8 99.753 1420.81 99.6782C1452.86 21.2752 1458.92 5.05004 1476.68 -57.3306C1476.69 -57.4677 1476.7 -57.5799 1476.66 -57.7087C1484.8 -85.3607 1458.74 -105.156 1411.63 -105.314C1411.42 -105.367 1411.22 -105.381 1411 -105.384C1215.99 -105.588 1020.95 -105.794 825.933 -105.998C825.794 -106.008 825.672 -105.992 825.53 -105.964C780.447 -99.3179 754.839 -83.2597 748.458 -57.8828C748.447 -57.7831 748.439 -57.7083 748.428 -57.6086C759.466 21.0866 749.611 -29.8375 760.649 48.8577C760.645 48.8951 760.642 48.92 760.678 48.9603C769.038 78.0621 794.762 93.3943 848.638 96.7551C848.638 96.7551 847.199 99.566 844.424 104.027C816.949 148.145 790.017 158.797 726.296 177.653C725.554 177.863 725.2 178.366 725.385 178.881C725.571 179.397 726.272 179.761 727.088 179.794C762.128 181.072 920.462 182.091 978.335 100.218C978.641 99.7873 979.306 99.546 980.08 99.6011L980.103 99.5776Z" fill="url(#paint1_linear_2410_218723)"/>
<path d="M1411.19 0.124544C1411.28 -0.0183631 1411.17 -0.174479 1410.94 -0.238128C1410.72 -0.301777 1410.46 -0.231208 1410.39 -0.0994095C1410.29 0.0434972 1410.41 0.211934 1410.63 0.275584C1410.85 0.339233 1411.11 0.268653 1411.21 0.125746L1411.19 0.124544Z" fill="#FD6060"/>
<path d="M1428.81 5.01432C1429 4.728 1428.77 4.39061 1428.32 4.27545C1427.87 4.14796 1427.38 4.29051 1427.19 4.56451C1427 4.85083 1427.23 5.17593 1427.68 5.30342C1428.13 5.43091 1428.62 5.30065 1428.81 5.01432Z" fill="#FD6060"/>
<path d="M1369.54 1.08806C1369.64 0.945156 1369.52 0.776731 1369.3 0.725391C1369.07 0.661741 1368.82 0.732284 1368.72 0.875191C1368.63 1.0181 1368.74 1.18654 1368.96 1.25019C1369.19 1.31383 1369.45 1.24325 1369.52 1.09915L1369.54 1.08806Z" fill="#FD6060"/>
<path d="M1387.17 5.98922C1387.36 5.7029 1387.13 5.36551 1386.68 5.25035C1386.23 5.12286 1385.71 5.25188 1385.54 5.53941C1385.35 5.82573 1385.56 6.16196 1386.01 6.27712C1386.46 6.40461 1386.96 6.27437 1387.15 5.97572L1387.17 5.98922Z" fill="#FD6060"/>
<path d="M1404.79 10.8813C1404.98 10.5951 1404.77 10.2589 1404.32 10.1438C1403.88 10.0163 1403.38 10.1465 1403.19 10.4328C1403 10.7191 1403.23 11.0565 1403.68 11.1716C1404.13 11.2991 1404.63 11.1565 1404.82 10.8702L1404.79 10.8813Z" fill="#FD6060"/>
<path d="M1422.42 15.7829C1422.68 15.3523 1422.37 14.8609 1421.7 14.6697C1421.03 14.4909 1420.27 14.6794 1419.99 15.1089C1419.72 15.5395 1420.05 16.032 1420.7 16.222C1421.38 16.4132 1422.13 16.2123 1422.42 15.7829Z" fill="#FD6060"/>
<path d="M1344.94 7.09599C1345.04 6.95308 1344.92 6.78465 1344.7 6.721C1344.48 6.65735 1344.22 6.72789 1344.12 6.8708C1344.03 7.0137 1344.14 7.18214 1344.37 7.24579C1344.59 7.30944 1344.85 7.2389 1344.94 7.09599Z" fill="#FD6060"/>
<path d="M1362.99 12.1016C1363.17 11.8153 1362.94 11.4779 1362.51 11.3639C1362.07 11.2365 1361.57 11.379 1361.38 11.653C1361.19 11.9393 1361.4 12.2754 1361.85 12.3906C1362.3 12.5181 1362.8 12.3755 1362.99 12.1016Z" fill="#FD6060"/>
<path d="M1380.61 17.0028C1380.89 16.5733 1380.56 16.0808 1379.89 15.8896C1379.22 15.7107 1378.46 15.8993 1378.18 16.3287C1377.91 16.7594 1378.22 17.2507 1378.89 17.4419C1379.57 17.6208 1380.32 17.4322 1380.61 17.0028Z" fill="#FD6060"/>
<path d="M1398.65 22.0072C1399.01 21.4335 1398.58 20.7734 1397.69 20.5308C1396.79 20.2882 1395.77 20.5475 1395.41 21.1212C1395.06 21.695 1395.48 22.355 1396.38 22.5976C1397.27 22.8403 1398.29 22.581 1398.65 22.0072Z" fill="#FD6060"/>
<path d="M1415.86 26.7963C1416.22 26.2225 1415.79 25.5625 1414.9 25.3199C1414 25.0772 1412.98 25.3365 1412.63 25.9103C1412.27 26.484 1412.69 27.1441 1413.59 27.3867C1414.48 27.6293 1415.5 27.3701 1415.86 26.7963Z" fill="#FD6060"/>
<path d="M1320.93 12.9632C1321.02 12.8203 1320.91 12.6518 1320.68 12.5882C1320.46 12.5245 1320.2 12.5951 1320.11 12.738C1320.01 12.8809 1320.13 13.0493 1320.35 13.113C1320.57 13.1766 1320.83 13.1061 1320.93 12.9632Z" fill="#FD6060"/>
<path d="M1338.55 17.8532C1338.74 17.5669 1338.53 17.2307 1338.08 17.1156C1337.63 16.9881 1337.11 17.1171 1336.94 17.4046C1336.76 17.6909 1336.97 18.0147 1337.42 18.1422C1337.86 18.2697 1338.38 18.1283 1338.55 17.8409L1338.55 17.8532Z" fill="#FD6060"/>
<path d="M1356.59 22.8696C1356.85 22.4389 1356.55 21.9476 1355.87 21.7564C1355.2 21.5652 1354.44 21.7661 1354.16 22.1955C1353.88 22.625 1354.22 23.1187 1354.88 23.3087C1355.55 23.4876 1356.31 23.2867 1356.59 22.8696Z" fill="#FD6060"/>
<path d="M1374.21 27.7596C1374.57 27.1859 1374.15 26.5258 1373.25 26.2832C1372.35 26.0406 1371.34 26.2999 1370.98 26.8737C1370.62 27.4474 1371.04 28.1074 1371.94 28.3501C1372.84 28.5927 1373.85 28.3334 1374.21 27.7596Z" fill="#FD6060"/>
<path d="M1392.23 32.7622C1392.69 32.0453 1392.15 31.2166 1391.05 30.9115C1389.93 30.6051 1388.65 30.9351 1388.2 31.6519C1387.74 32.3688 1388.28 33.1975 1389.4 33.5038C1390.52 33.8102 1391.8 33.4802 1392.25 32.7634L1392.23 32.7622Z" fill="#FD6060"/>
<path d="M1409.46 37.5516C1409.92 36.8347 1409.38 36.0059 1408.26 35.6996C1407.14 35.3932 1405.86 35.7232 1405.41 36.4401C1404.95 37.157 1405.49 37.9857 1406.61 38.2921C1407.73 38.5985 1409.01 38.2685 1409.46 37.5516Z" fill="#FD6060"/>
<path d="M1425.93 43.268L1426.52 40.6277C1426.27 40.4633 1425.98 40.3334 1425.65 40.238C1424.3 39.8688 1422.77 40.2562 1422.23 41.1143C1421.68 41.9724 1422.33 42.9553 1423.67 43.3368C1424.44 43.5459 1425.27 43.5114 1425.93 43.2803L1425.93 43.268Z" fill="#FD6060"/>
<path d="M1296.91 18.8305C1297 18.6876 1296.89 18.5193 1296.66 18.4556C1296.44 18.392 1296.18 18.4625 1296.11 18.6066C1296.01 18.7494 1296.13 18.9178 1296.35 18.9815C1296.57 19.0451 1296.83 18.9746 1296.93 18.8317L1296.91 18.8305Z" fill="#FD6060"/>
<path d="M1314.53 23.7198C1314.72 23.4335 1314.51 23.1096 1314.06 22.9821C1313.61 22.8547 1313.1 22.9837 1312.93 23.2712C1312.74 23.5575 1312.97 23.8948 1313.42 24.01C1313.86 24.1375 1314.36 23.9949 1314.55 23.721L1314.53 23.7198Z" fill="#FD6060"/>
<path d="M1332.15 28.621C1332.42 28.1904 1332.11 27.6991 1331.44 27.5079C1330.77 27.329 1330.01 27.5299 1329.75 27.9482C1329.46 28.3776 1329.79 28.8701 1330.46 29.0613C1331.13 29.2402 1331.89 29.0393 1332.17 28.6222L1332.15 28.621Z" fill="#FD6060"/>
<path d="M1350.19 33.6254C1350.55 33.0516 1350.13 32.3916 1349.23 32.149C1348.34 31.9063 1347.32 32.1656 1346.96 32.7394C1346.6 33.3132 1347.03 33.9732 1347.92 34.2158C1348.82 34.4584 1349.84 34.1992 1350.19 33.6254Z" fill="#FD6060"/>
<path d="M1367.82 38.5149C1368.27 37.798 1367.73 36.9693 1366.61 36.663C1365.49 36.3566 1364.22 36.6865 1363.76 37.4035C1363.31 38.1204 1363.85 38.9491 1364.97 39.2554C1366.09 39.5618 1367.36 39.2319 1367.82 38.5149Z" fill="#FD6060"/>
<path d="M1385.86 43.5313C1386.4 42.6712 1385.75 41.6861 1384.42 41.3172C1383.08 40.9471 1381.55 41.3478 1381 42.1955C1380.45 43.0556 1381.1 44.0408 1382.43 44.4097C1383.77 44.7798 1385.31 44.3791 1385.84 43.5301L1385.86 43.5313Z" fill="#FD6060"/>
<path d="M1403.07 48.3195C1403.61 47.4595 1402.96 46.4621 1401.64 46.0932C1400.29 45.7232 1398.78 46.125 1398.23 46.985C1397.68 47.845 1398.33 48.8424 1399.66 49.1989C1401 49.569 1402.54 49.1684 1403.07 48.3195Z" fill="#FD6060"/>
<path d="M1420.69 53.2093C1421.33 52.2061 1420.56 51.0523 1419.01 50.6197C1417.45 50.1859 1415.67 50.646 1415.03 51.6492C1414.39 52.6524 1415.15 53.8062 1416.7 54.2388C1418.27 54.6727 1420.05 54.2001 1420.69 53.2093Z" fill="#FD6060"/>
<path d="M1272.31 24.8272C1272.41 24.6844 1272.29 24.516 1272.09 24.4659C1271.86 24.4022 1271.6 24.4728 1271.53 24.6168C1271.43 24.7597 1271.55 24.9158 1271.77 24.9794C1272 25.043 1272.26 24.9725 1272.33 24.8284L1272.31 24.8272Z" fill="#FD6060"/>
<path d="M1290.35 29.8444C1290.54 29.5582 1290.33 29.222 1289.88 29.1069C1289.43 28.9794 1288.93 29.122 1288.74 29.4082C1288.55 29.6945 1288.78 30.0318 1289.21 30.1457C1289.66 30.2732 1290.18 30.1318 1290.35 29.8567L1290.35 29.8444Z" fill="#FD6060"/>
<path d="M1307.97 34.7335C1308.24 34.3028 1307.93 33.8115 1307.26 33.6203C1306.59 33.4414 1305.83 33.63 1305.56 34.0606C1305.28 34.4901 1305.61 34.9826 1306.28 35.1615C1306.95 35.3404 1307.71 35.1518 1307.99 34.7224L1307.97 34.7335Z" fill="#FD6060"/>
<path d="M1325.6 39.635C1325.95 39.0612 1325.53 38.4011 1324.64 38.1585C1323.74 37.9158 1322.72 38.1751 1322.34 38.7477C1321.99 39.3215 1322.41 39.9816 1323.3 40.2242C1324.2 40.4669 1325.22 40.2076 1325.58 39.6338L1325.6 39.635Z" fill="#FD6060"/>
<path d="M1343.63 44.639C1344.09 43.9221 1343.55 43.0933 1342.43 42.787C1341.31 42.4806 1340.03 42.8106 1339.58 43.5275C1339.13 44.2444 1339.66 45.0731 1340.79 45.3795C1341.91 45.6858 1343.18 45.3559 1343.63 44.639Z" fill="#FD6060"/>
<path d="M1361.26 49.54C1361.8 48.68 1361.17 47.6838 1359.83 47.3137C1358.48 46.9436 1356.95 47.3442 1356.4 48.2043C1355.85 49.0643 1356.5 50.0494 1357.85 50.4195C1359.19 50.7896 1360.71 50.3878 1361.26 49.54Z" fill="#FD6060"/>
<path d="M1378.89 54.4311C1379.43 53.5711 1378.78 52.5737 1377.46 52.2048C1376.11 51.8347 1374.58 52.2354 1374.03 53.0954C1373.48 53.9555 1374.13 54.9405 1375.48 55.3106C1376.82 55.6807 1378.36 55.2924 1378.89 54.4311Z" fill="#FD6060"/>
<path d="M1396.51 59.3328C1397.15 58.3296 1396.4 57.177 1394.83 56.7432C1393.26 56.3094 1391.49 56.7696 1390.85 57.7728C1390.2 58.776 1390.97 59.9298 1392.52 60.3624C1394.09 60.7962 1395.87 60.3237 1396.51 59.3328Z" fill="#FD6060"/>
<path d="M1265.52 35.4712C1265.62 35.3283 1265.5 35.1599 1265.28 35.0963C1265.06 35.0326 1264.8 35.1032 1264.72 35.2473C1264.63 35.3902 1264.74 35.5586 1264.95 35.6087C1265.17 35.6724 1265.43 35.6018 1265.53 35.4589L1265.52 35.4712Z" fill="#FD6060"/>
<path d="M1283.56 40.4878C1283.75 40.2015 1283.54 39.8777 1283.09 39.7502C1282.64 39.6227 1282.15 39.753 1281.96 40.0393C1281.77 40.3256 1282 40.6629 1282.43 40.7768C1282.88 40.9043 1283.37 40.7741 1283.56 40.4878Z" fill="#FD6060"/>
<path d="M1301.58 45.4891C1301.94 44.9154 1301.52 44.2553 1300.62 44.0127C1299.72 43.7701 1298.71 44.0294 1298.35 44.6031C1297.99 45.1769 1298.41 45.8369 1299.31 46.0795C1300.2 46.3222 1301.22 46.0629 1301.58 45.4891Z" fill="#FD6060"/>
<path d="M1319.2 50.3909C1319.65 49.674 1319.12 48.8453 1318 48.5389C1316.87 48.2326 1315.6 48.5625 1315.15 49.2794C1314.69 49.9964 1315.23 50.8251 1316.35 51.1314C1317.47 51.4378 1318.75 51.1078 1319.2 50.3909Z" fill="#FD6060"/>
<path d="M1337.24 55.3951C1337.79 54.535 1337.16 53.5388 1335.81 53.181C1334.46 52.8109 1332.93 53.2115 1332.38 54.0593C1331.83 54.9194 1332.49 55.9046 1333.81 56.2735C1335.16 56.6436 1336.67 56.254 1337.22 55.3939L1337.24 55.3951Z" fill="#FD6060"/>
<path d="M1354.45 60.183C1355 59.3229 1354.36 58.339 1353.02 57.9689C1351.67 57.5988 1350.16 58.0007 1349.61 58.8484C1349.06 59.7085 1349.7 60.6924 1351.06 61.0637C1352.41 61.4338 1353.92 61.0319 1354.47 60.1719L1354.45 60.183Z" fill="#FD6060"/>
<path d="M1241.34 41.5956C1241.44 41.4526 1241.32 41.2842 1241.1 41.2328C1240.87 41.1691 1240.61 41.2397 1240.52 41.3704C1240.43 41.5133 1240.54 41.6818 1240.76 41.7454C1240.99 41.8091 1241.25 41.7385 1241.34 41.5956Z" fill="#FD6060"/>
<path d="M1258.97 46.4846C1259.15 46.1983 1258.92 45.8732 1258.48 45.7457C1258.03 45.6305 1257.53 45.7484 1257.34 46.0348C1257.15 46.3211 1257.36 46.6574 1257.81 46.7725C1258.26 46.9 1258.78 46.7709 1258.95 46.4711L1258.97 46.4846Z" fill="#FD6060"/>
<path d="M1277 51.5021C1277.27 51.0715 1276.96 50.5802 1276.29 50.389C1275.62 50.2101 1274.86 50.3987 1274.58 50.8281C1274.31 51.2587 1274.64 51.7513 1275.29 51.9413C1275.96 52.1201 1276.72 51.9316 1277 51.5021Z" fill="#FD6060"/>
<path d="M1294.63 56.391C1294.99 55.8172 1294.56 55.1572 1293.67 54.9146C1292.77 54.672 1291.75 54.9312 1291.4 55.505C1291.04 56.0788 1291.46 56.7388 1292.36 56.9814C1293.25 57.2241 1294.27 56.9648 1294.63 56.391Z" fill="#FD6060"/>
<path d="M1312.25 61.2928C1312.7 60.5759 1312.17 59.7471 1311.04 59.4408C1309.92 59.1344 1308.65 59.4644 1308.19 60.1813C1307.74 60.8982 1308.28 61.7269 1309.4 62.0333C1310.52 62.3396 1311.8 62.0097 1312.25 61.2928Z" fill="#FD6060"/>
<path d="M1234.54 52.2388C1234.63 52.0959 1234.52 51.9275 1234.29 51.8638C1234.07 51.8002 1233.81 51.8707 1233.73 52.0148C1233.64 52.1578 1233.75 52.3262 1233.96 52.3763C1234.18 52.44 1234.44 52.3694 1234.54 52.2265L1234.54 52.2388Z" fill="#FD6060"/>
<path d="M1252.16 57.1403C1252.35 56.854 1252.12 56.529 1251.69 56.4027C1251.24 56.2876 1250.72 56.4166 1250.55 56.7041C1250.38 56.9915 1250.57 57.3141 1251.04 57.4428C1251.49 57.5702 1251.99 57.4277 1252.18 57.1415L1252.16 57.1403Z" fill="#FD6060"/>
<path d="M866.785 -0.268071C866.804 -0.428092 866.627 -0.563208 866.378 -0.578821C866.13 -0.594435 865.923 -0.483339 865.904 -0.323319C865.885 -0.163298 866.061 -0.0281999 866.31 -0.0125865C866.559 0.00302687 866.765 -0.108051 866.785 -0.268071Z" fill="#FD6060"/>
<path d="M792.067 6.37487C792.124 5.90636 791.575 5.49922 790.866 5.45476C790.157 5.4103 789.517 5.75526 789.462 6.21144C789.407 6.66762 789.935 7.08586 790.663 7.13152C791.391 7.17719 792.012 6.83104 792.067 6.37487Z" fill="#FD6060"/>
<path d="M810.544 7.69127C810.601 7.22277 810.052 6.81563 809.343 6.77117C808.634 6.72671 807.994 7.07167 807.939 7.52784C807.884 7.98402 808.412 8.40227 809.14 8.44793C809.868 8.49359 810.489 8.14745 810.544 7.69127Z" fill="#FD6060"/>
<path d="M829.025 9.01114C829.063 8.70296 828.711 8.42004 828.232 8.39001C827.753 8.35997 827.34 8.58249 827.302 8.903C827.263 9.22352 827.618 9.48176 828.096 9.5118C828.575 9.54184 828.988 9.31932 829.025 9.01114Z" fill="#FD6060"/>
<path d="M847.062 10.2993C847.081 10.1393 846.904 10.0042 846.656 9.98856C846.407 9.97295 846.2 10.084 846.181 10.244C846.162 10.4041 846.338 10.5392 846.587 10.5548C846.836 10.5704 847.042 10.4593 847.062 10.2993Z" fill="#FD6060"/>
<path d="M790.391 17.9501C790.428 17.6419 790.075 17.3712 789.596 17.3412C789.117 17.3111 788.704 17.5337 788.667 17.8419C788.629 18.1502 788.983 18.4208 789.462 18.4508C789.94 18.4809 790.355 18.246 790.391 17.9501Z" fill="#FD6060"/>
<path d="M808.868 19.267C808.905 18.9588 808.552 18.6881 808.073 18.6581C807.594 18.628 807.181 18.8506 807.144 19.1588C807.107 19.4671 807.46 19.7377 807.939 19.7677C808.418 19.7978 808.832 19.5629 808.868 19.267Z" fill="#FD6060"/>
<path d="M827.349 20.586C827.368 20.426 827.192 20.2908 826.943 20.2752C826.694 20.2596 826.488 20.3707 826.468 20.5308C826.449 20.6908 826.627 20.8137 826.876 20.8293C827.125 20.8449 827.331 20.7338 827.349 20.586Z" fill="#FD6060"/>
<path d="M788.615 29.6196L788.654 29.9046C788.654 29.9046 788.699 29.8338 788.704 29.7972C788.711 29.7362 788.682 29.673 788.633 29.6208L788.615 29.6196Z" fill="#FD6060"/>
<g filter="url(#filter0_dii_2410_218723)">
<path fill-rule="evenodd" clip-rule="evenodd" d="M1030.33 2C1030.33 5.86603 1033.46 9.00002 1037.33 9.00002C1033.46 9.00002 1030.33 12.134 1030.33 16C1030.33 12.134 1027.19 9.00002 1023.33 9.00002C1027.19 9.00002 1030.33 5.86603 1030.33 2Z" fill="#FEEA02"/>
<path d="M1030.33 3.9209C1031 6.38527 1032.94 8.32497 1035.41 9C1032.94 9.67494 1031 11.6142 1030.33 14.0781C1029.65 11.6139 1027.71 9.67471 1025.25 9C1027.71 8.3252 1029.65 6.38557 1030.33 3.9209Z" stroke="#ED9A02" stroke-width="0.518519"/>
</g>
<g filter="url(#filter1_dii_2410_218723)">
<path fill-rule="evenodd" clip-rule="evenodd" d="M1219.33 45C1219.33 48.866 1222.46 52 1226.33 52C1222.46 52 1219.33 55.134 1219.33 59C1219.33 55.134 1216.19 52 1212.33 52C1216.19 52 1219.33 48.866 1219.33 45Z" fill="#FEEA02"/>
<path d="M1219.33 46.9209C1220 49.3853 1221.94 51.325 1224.41 52C1221.94 52.6749 1220 54.6142 1219.33 57.0781C1218.65 54.6139 1216.71 52.6747 1214.25 52C1216.71 51.3252 1218.65 49.3856 1219.33 46.9209Z" stroke="#ED9A02" stroke-width="0.518519"/>
</g>
<path d="M498.229 91.3959L783.667 109.336C809.794 110.343 834.153 109.271 846.29 87.5159C846.329 87.4559 846.352 87.3949 846.36 87.3329C872.924 22.1131 877.971 8.62156 892.992 -43.1971C893.006 -43.3108 893.017 -43.4038 892.983 -43.51C899.858 -66.4827 879.582 -82.6278 842.378 -82.3156C842.209 -82.3574 842.053 -82.3672 841.879 -82.3677C687.832 -80.7022 533.769 -79.0376 379.721 -77.372C379.612 -77.3789 379.515 -77.3641 379.402 -77.34C343.684 -71.4126 323.199 -57.8754 317.754 -36.8031C317.744 -36.7205 317.736 -36.6585 317.726 -36.5758C325.191 28.4805 318.218 -13.5923 325.683 51.4641C325.679 51.4951 325.676 51.5158 325.704 51.5488C331.844 75.5666 351.92 88.0198 394.425 90.2957C394.425 90.2957 393.243 92.6367 390.98 96.3567C368.573 133.145 347.129 142.218 296.493 158.43C295.903 158.612 295.616 159.031 295.754 159.456C295.892 159.881 296.44 160.176 297.085 160.196C324.743 160.924 449.801 160.279 496.822 91.9425C497.07 91.5833 497.6 91.3772 498.211 91.4156L498.229 91.3959Z" fill="url(#paint2_linear_2410_218723)"/>
<path d="M860.035 1.55052C860.114 1.42944 860.024 1.28837 859.843 1.23634C859.663 1.18431 859.452 1.2456 859.374 1.36668C859.295 1.48776 859.385 1.62884 859.567 1.67049C859.747 1.72252 859.958 1.66123 860.021 1.53927L860.035 1.55052Z" fill="#FD6060"/>
<path d="M825.933 2.62518C826.011 2.5041 825.921 2.36302 825.74 2.32137C825.559 2.26935 825.348 2.33064 825.271 2.44134C825.192 2.56242 825.283 2.7035 825.463 2.75552C825.643 2.80755 825.854 2.74626 825.917 2.62431L825.933 2.62518Z" fill="#FD6060"/>
<path d="M840.3 6.69396C840.379 6.57294 840.287 6.4423 840.107 6.3903C839.927 6.3383 839.716 6.39958 839.654 6.5111C839.575 6.63212 839.665 6.77314 839.846 6.82514C840.026 6.87714 840.237 6.81585 840.315 6.69484L840.3 6.69396Z" fill="#FD6060"/>
<path d="M854.659 10.7488C854.816 10.5063 854.636 10.2238 854.274 10.1301C853.914 10.0259 853.508 10.1496 853.352 10.3817C853.195 10.6242 853.376 10.8963 853.736 11.0004C854.097 11.1046 854.501 10.9913 854.659 10.7488Z" fill="#FD6060"/>
<path d="M806.331 7.55414C806.41 7.43312 806.32 7.2921 806.138 7.25048C805.958 7.19848 805.747 7.25974 805.668 7.38076C805.59 7.50178 805.68 7.6428 805.86 7.6948C806.04 7.74681 806.251 7.68551 806.314 7.56362L806.331 7.55414Z" fill="#FD6060"/>
<path d="M820.689 11.619C820.846 11.3765 820.666 11.094 820.304 11.0003C819.944 10.8961 819.524 11.0085 819.382 11.2519C819.225 11.4944 819.39 11.776 819.751 11.8697C820.111 11.9739 820.516 11.8606 820.675 11.6077L820.689 11.619Z" fill="#FD6060"/>
<path d="M835.057 15.6774C835.214 15.435 835.05 15.1534 834.688 15.0597C834.328 14.9556 833.923 15.0688 833.766 15.3113C833.609 15.5537 833.789 15.8362 834.151 15.9299C834.511 16.034 834.917 15.9104 835.074 15.6679L835.057 15.6774Z" fill="#FD6060"/>
<path d="M849.415 19.742C849.636 19.3775 849.395 18.966 848.855 18.8098C848.313 18.6641 847.699 18.8283 847.463 19.1919C847.243 19.5564 847.499 19.9688 848.024 20.1241C848.564 20.2803 849.179 20.1056 849.415 19.742Z" fill="#FD6060"/>
<path d="M786.256 12.6011C786.334 12.4801 786.244 12.3391 786.064 12.2871C785.884 12.2351 785.673 12.2964 785.594 12.4174C785.515 12.5384 785.606 12.6794 785.786 12.7314C785.966 12.7834 786.177 12.7222 786.256 12.6011Z" fill="#FD6060"/>
<path d="M800.954 16.7523C801.111 16.5098 800.931 16.2274 800.585 16.1345C800.225 16.0304 799.819 16.1541 799.663 16.3861C799.506 16.6286 799.671 16.9101 800.032 17.0038C800.392 17.108 800.798 16.9843 800.954 16.7523Z" fill="#FD6060"/>
<path d="M815.312 20.8169C815.548 20.4532 815.292 20.0408 814.752 19.8846C814.21 19.7388 813.596 19.9031 813.36 20.2668C813.14 20.6313 813.381 21.0429 813.921 21.1991C814.462 21.3449 815.077 21.1806 815.312 20.8169Z" fill="#FD6060"/>
<path d="M830.012 24.9673C830.31 24.4815 829.979 23.9287 829.258 23.7309C828.537 23.5331 827.712 23.7587 827.413 24.2445C827.114 24.7302 827.445 25.283 828.166 25.4808C828.888 25.6786 829.713 25.453 830.012 24.9673Z" fill="#FD6060"/>
<path d="M844.039 28.9399C844.338 28.4542 844.007 27.9014 843.286 27.7036C842.564 27.5057 841.739 27.7314 841.44 28.2171C841.141 28.7029 841.472 29.2556 842.194 29.4535C842.915 29.6513 843.74 29.4257 844.039 28.9399Z" fill="#FD6060"/>
<path d="M766.654 17.5299C766.733 17.4088 766.643 17.2678 766.462 17.2158C766.282 17.1638 766.071 17.2251 765.993 17.3461C765.914 17.4671 766.004 17.6081 766.184 17.6601C766.365 17.7121 766.576 17.6509 766.654 17.5299Z" fill="#FD6060"/>
<path d="M781.013 21.5853C781.17 21.3428 781.005 21.0612 780.644 20.9675C780.284 20.8634 779.864 20.9758 779.722 21.2191C779.565 21.4616 779.731 21.7327 780.091 21.8368C780.451 21.941 780.873 21.8182 781.014 21.5749L781.013 21.5853Z" fill="#FD6060"/>
<path d="M795.711 25.7453C795.931 25.3808 795.69 24.9693 795.15 24.8131C794.61 24.6569 793.994 24.8316 793.759 25.1952C793.523 25.5589 793.795 25.9722 794.319 26.1275C794.861 26.2733 795.476 26.0986 795.711 25.7453Z" fill="#FD6060"/>
<path d="M810.07 29.8002C810.369 29.3145 810.038 28.7617 809.317 28.5639C808.595 28.3661 807.77 28.5917 807.471 29.0775C807.173 29.5632 807.503 30.1159 808.225 30.3138C808.946 30.5116 809.771 30.286 810.07 29.8002Z" fill="#FD6060"/>
<path d="M824.754 33.9487C825.131 33.3418 824.71 32.6478 823.824 32.3988C822.923 32.149 821.887 32.436 821.51 33.0429C821.132 33.6498 821.553 34.3437 822.454 34.5936C823.356 34.8434 824.392 34.5564 824.769 33.9495L824.754 33.9487Z" fill="#FD6060"/>
<path d="M838.797 37.9224C839.174 37.3154 838.753 36.6214 837.852 36.3715C836.95 36.1216 835.915 36.4087 835.537 37.0156C835.159 37.6226 835.581 38.3166 836.482 38.5665C837.383 38.8164 838.419 38.5294 838.797 37.9224Z" fill="#FD6060"/>
<path d="M852.207 42.6773L852.723 40.4532C852.524 40.3168 852.29 40.2097 852.021 40.1319C850.944 39.8311 849.703 40.1678 849.249 40.8932C848.794 41.6186 849.305 42.4403 850.381 42.7514C850.995 42.9217 851.667 42.8867 852.206 42.6876L852.207 42.6773Z" fill="#FD6060"/>
<path d="M747.053 22.458C747.131 22.3371 747.041 22.1961 746.861 22.1441C746.681 22.0921 746.47 22.1534 746.407 22.2752C746.328 22.3962 746.418 22.5371 746.599 22.5891C746.779 22.6411 746.99 22.5798 747.068 22.4589L747.053 22.458Z" fill="#FD6060"/>
<path d="M761.411 26.5134C761.569 26.271 761.402 25.9998 761.042 25.8957C760.682 25.7915 760.262 25.9039 760.12 26.1472C759.963 26.3897 760.143 26.6721 760.505 26.7658C760.865 26.8699 761.271 26.7463 761.427 26.5143L761.411 26.5134Z" fill="#FD6060"/>
<path d="M775.77 30.5775C775.99 30.213 775.749 29.8015 775.209 29.6454C774.668 29.4996 774.052 29.6742 773.833 30.0283C773.598 30.392 773.854 30.8043 774.394 30.9605C774.935 31.1063 775.551 30.9316 775.785 30.5784L775.77 30.5775Z" fill="#FD6060"/>
<path d="M790.469 34.728C790.768 34.2423 790.437 33.6895 789.716 33.4916C788.994 33.2938 788.169 33.5195 787.87 34.0052C787.571 34.491 787.902 35.0437 788.624 35.2415C789.345 35.4394 790.17 35.2138 790.469 34.728Z" fill="#FD6060"/>
<path d="M804.828 38.7827C805.206 38.1757 804.785 37.4818 803.883 37.2319C802.982 36.982 801.946 37.269 801.568 37.876C801.191 38.4829 801.612 39.1769 802.513 39.4268C803.415 39.6767 804.451 39.3897 804.828 38.7827Z" fill="#FD6060"/>
<path d="M819.526 42.9431C819.983 42.2149 819.47 41.39 818.404 41.0889C817.322 40.7869 816.076 41.1354 815.621 41.8532C815.165 42.5815 815.677 43.4063 816.743 43.7074C817.825 44.0094 819.072 43.661 819.511 42.9422L819.526 42.9431Z" fill="#FD6060"/>
<path d="M833.554 46.9151C834.01 46.187 833.499 45.3519 832.433 45.0508C831.351 44.7489 830.12 45.0981 829.664 45.8263C829.208 46.5544 829.719 47.3895 830.786 47.6802C831.868 47.9821 833.114 47.6337 833.554 46.9151Z" fill="#FD6060"/>
<path d="M847.913 50.9704C848.448 50.121 847.845 49.155 846.599 48.8018C845.338 48.4478 843.897 48.8481 843.362 49.6975C842.827 50.5469 843.43 51.5129 844.676 51.8661C845.938 52.2201 847.38 51.8094 847.913 50.9704Z" fill="#FD6060"/>
<path d="M726.979 27.4961C727.057 27.3751 726.967 27.2342 726.801 27.1934C726.621 27.1415 726.41 27.2027 726.347 27.3245C726.268 27.4455 726.36 27.5761 726.54 27.628C726.72 27.68 726.931 27.6188 726.994 27.4969L726.979 27.4961Z" fill="#FD6060"/>
<path d="M741.676 31.6567C741.833 31.4144 741.668 31.1328 741.307 31.0391C740.947 30.935 740.541 31.0587 740.384 31.301C740.227 31.5434 740.407 31.8258 740.753 31.9186C741.113 32.0227 741.534 31.9 741.675 31.6671L741.676 31.6567Z" fill="#FD6060"/>
<path d="M756.035 35.7114C756.256 35.3468 756.015 34.9353 755.475 34.7791C754.933 34.6333 754.319 34.7976 754.099 35.1621C753.863 35.5258 754.119 35.9382 754.661 36.084C755.202 36.2298 755.816 36.0656 756.052 35.7019L756.035 35.7114Z" fill="#FD6060"/>
<path d="M770.394 39.7759C770.693 39.2901 770.362 38.7373 769.64 38.5394C768.919 38.3415 768.094 38.5672 767.779 39.0521C767.48 39.538 767.811 40.0908 768.533 40.2886C769.254 40.4865 770.079 40.2608 770.378 39.775L770.394 39.7759Z" fill="#FD6060"/>
<path d="M785.092 43.9258C785.47 43.3188 785.049 42.6248 784.147 42.3749C783.246 42.125 782.21 42.4121 781.833 43.019C781.455 43.626 781.876 44.32 782.778 44.5699C783.679 44.8198 784.715 44.5327 785.092 43.9258Z" fill="#FD6060"/>
<path d="M799.451 47.9904C799.907 47.2622 799.411 46.4279 798.33 46.1259C797.248 45.8239 796.001 46.1723 795.545 46.9005C795.089 47.6287 795.602 48.4535 796.683 48.7555C797.765 49.0575 798.996 48.7082 799.451 47.9904Z" fill="#FD6060"/>
<path d="M813.819 52.048C814.275 51.3198 813.764 50.4846 812.698 50.1835C811.617 49.8816 810.37 50.23 809.914 50.9582C809.458 51.6863 809.97 52.5112 811.052 52.8131C812.133 53.1151 813.378 52.777 813.819 52.048Z" fill="#FD6060"/>
<path d="M828.177 56.113C828.712 55.2636 828.125 54.2984 826.863 53.9444C825.602 53.5904 824.161 53.9907 823.626 54.8401C823.092 55.6895 823.694 56.6555 824.94 57.0087C826.202 57.3627 827.644 56.952 828.177 56.113Z" fill="#FD6060"/>
<path d="M842.552 60.1688C843.166 59.1981 842.488 58.0917 841.047 57.6857C839.605 57.2796 837.954 57.7413 837.341 58.7119C836.727 59.6825 837.405 60.7889 838.846 61.195C840.288 61.6011 841.939 61.1394 842.552 60.1688Z" fill="#FD6060"/>
<path d="M721.421 36.3874C721.5 36.2663 721.41 36.1253 721.229 36.0733C721.049 36.0213 720.838 36.0826 720.775 36.2045C720.697 36.3255 720.787 36.4665 720.953 36.5073C721.133 36.5593 721.344 36.498 721.423 36.377L721.421 36.3874Z" fill="#FD6060"/>
<path d="M736.119 40.5481C736.276 40.3056 736.11 40.0344 735.75 39.9303C735.39 39.8262 734.985 39.9395 734.828 40.1819C734.671 40.4243 734.851 40.7068 735.197 40.7996C735.557 40.9037 735.962 40.7905 736.119 40.5481Z" fill="#FD6060"/>
<path d="M750.793 44.6938C751.092 44.208 750.761 43.6553 750.04 43.4575C749.318 43.2596 748.493 43.4853 748.194 43.971C747.895 44.4568 748.226 45.0095 748.948 45.2073C749.669 45.4052 750.494 45.1795 750.793 44.6938Z" fill="#FD6060"/>
<path d="M765.151 48.7588C765.529 48.1518 765.108 47.4578 764.206 47.2079C763.305 46.958 762.269 47.2451 761.891 47.852C761.514 48.459 761.935 49.153 762.836 49.4029C763.738 49.6528 764.774 49.3658 765.151 48.7588Z" fill="#FD6060"/>
<path d="M779.85 52.9085C780.307 52.1802 779.811 51.3458 778.728 51.0542C777.646 50.7522 776.4 51.1007 775.945 51.8185C775.489 52.5468 776.001 53.3717 777.067 53.6728C778.149 53.9748 779.379 53.6358 779.835 52.9076L779.85 52.9085Z" fill="#FD6060"/>
<path d="M793.878 56.8807C794.334 56.1525 793.837 55.3285 792.756 55.0265C791.674 54.7246 790.443 55.0739 789.988 55.7917C789.532 56.5199 790.029 57.3438 791.126 57.6467C792.208 57.9486 793.439 57.5994 793.895 56.8712L793.878 56.8807Z" fill="#FD6060"/>
<path d="M808.577 61.0315C809.111 60.1821 808.509 59.216 807.263 58.8629C806.001 58.5089 804.559 58.9195 804.026 59.7586C803.491 60.608 804.094 61.574 805.34 61.9271C806.586 62.2803 808.042 61.8809 808.577 61.0315Z" fill="#FD6060"/>
<path d="M701.686 41.5309C701.764 41.4099 701.674 41.2688 701.492 41.2271C701.312 41.1751 701.101 41.2364 701.024 41.3471C700.945 41.4682 701.035 41.6093 701.216 41.6613C701.396 41.7133 701.607 41.652 701.686 41.5309Z" fill="#FD6060"/>
<path d="M716.045 45.5853C716.202 45.3428 716.02 45.0707 715.66 44.9665C715.299 44.8728 714.895 44.9757 714.738 45.2182C714.581 45.4607 714.745 45.7424 715.107 45.8361C715.467 45.9403 715.887 45.8278 716.031 45.5741L716.045 45.5853Z" fill="#FD6060"/>
<path d="M730.742 49.7464C730.963 49.3819 730.722 48.9704 730.182 48.8142C729.64 48.6684 729.026 48.8327 728.79 49.1964C728.57 49.5609 728.826 49.9733 729.351 50.1286C729.892 50.2743 730.507 50.1101 730.742 49.7464Z" fill="#FD6060"/>
<path d="M745.102 53.8002C745.401 53.3145 745.07 52.7618 744.349 52.5639C743.627 52.3661 742.802 52.5917 742.503 53.0775C742.204 53.5632 742.535 54.116 743.257 54.3138C743.978 54.5117 744.803 54.286 745.102 53.8002Z" fill="#FD6060"/>
<path d="M759.46 57.8657C759.837 57.2588 759.416 56.5648 758.515 56.3149C757.613 56.065 756.577 56.352 756.2 56.959C755.822 57.5659 756.243 58.2599 757.145 58.5098C758.046 58.7597 759.082 58.4727 759.46 57.8657Z" fill="#FD6060"/>
<path d="M774.144 62.0142C774.6 61.2861 774.103 60.4622 773.021 60.1602C771.94 59.8583 770.709 60.2076 770.254 60.9253C769.798 61.6534 770.309 62.4886 771.375 62.7896C772.456 63.0916 773.687 62.7423 774.144 62.0142Z" fill="#FD6060"/>
<path d="M696.113 50.4215C696.191 50.3005 696.101 50.1595 695.921 50.1075C695.741 50.0555 695.53 50.1168 695.467 50.2387C695.388 50.3597 695.478 50.5007 695.644 50.5415C695.824 50.5935 696.035 50.5322 696.114 50.4112L696.113 50.4215Z" fill="#FD6060"/>
<path d="M710.471 54.4861C710.628 54.2437 710.446 53.9717 710.102 53.8685C709.741 53.7748 709.32 53.8872 709.179 54.1304C709.037 54.3737 709.188 54.6439 709.563 54.7489C709.923 54.853 710.329 54.7294 710.486 54.487L710.471 54.4861Z" fill="#FD6060"/>
<path d="M725.5 58.7289C725.799 58.2431 725.468 57.6903 724.747 57.4925C724.025 57.2946 723.2 57.5203 722.901 58.006C722.587 58.4909 722.933 59.0446 723.655 59.2424C724.376 59.4403 725.201 59.2146 725.5 58.7289Z" fill="#FD6060"/>
<path d="M690.869 59.4146C691.026 59.1722 690.862 58.8906 690.5 58.7969C690.14 58.6928 689.734 58.8165 689.577 59.0588C689.42 59.3012 689.6 59.5836 689.961 59.6773C690.321 59.7814 690.743 59.6587 690.885 59.4154L690.869 59.4146Z" fill="#FD6060"/>
<path d="M336.726 2.84546C336.796 2.32578 336.219 1.86384 335.445 1.82018C334.672 1.77652 333.981 2.16687 333.911 2.68655C333.841 3.20623 334.418 3.66817 335.191 3.71183C335.965 3.75549 336.656 3.36515 336.726 2.84546Z" fill="#FD6060"/>
<path d="M351.777 3.91724C351.847 3.39756 351.27 2.93561 350.497 2.89196C349.724 2.8483 349.032 3.23864 348.962 3.75833C348.893 4.27801 349.469 4.73995 350.243 4.78361C351.016 4.82727 351.707 4.43692 351.777 3.91724Z" fill="#FD6060"/>
<path d="M366.868 4.9974C366.921 4.60244 366.483 4.26356 365.911 4.23125C365.339 4.19894 364.816 4.49409 364.765 4.87865C364.713 5.26322 365.149 5.61248 365.721 5.64479C366.293 5.67709 366.816 5.38197 366.868 4.9974Z" fill="#FD6060"/>
<path d="M381.564 6.04971C381.599 5.78987 381.317 5.56454 380.931 5.54271C380.544 5.52088 380.207 5.71129 380.172 5.97113C380.137 6.23097 380.434 6.45718 380.805 6.47813C381.176 6.49909 381.529 6.30955 381.564 6.04971Z" fill="#FD6060"/>
<path d="M396.276 7.10213C396.294 6.96722 396.153 6.8547 395.952 6.84334C395.751 6.83198 395.582 6.92703 395.564 7.06193C395.546 7.19684 395.687 7.30934 395.888 7.3207C396.089 7.33206 396.258 7.23703 396.276 7.10213Z" fill="#FD6060"/>
<path d="M335.314 12.742C335.367 12.3471 334.929 12.0082 334.357 11.9759C333.785 11.9436 333.262 12.2387 333.211 12.6233C333.159 13.0078 333.58 13.3562 334.167 13.3894C334.755 13.4226 335.262 13.1266 335.314 12.742Z" fill="#FD6060"/>
<path d="M350.381 13.8158C350.434 13.4208 349.997 13.0819 349.425 13.0496C348.852 13.0173 348.33 13.3124 348.278 13.697C348.226 14.0816 348.647 14.43 349.235 14.4631C349.822 14.4963 350.33 14.2003 350.381 13.8158Z" fill="#FD6060"/>
<path d="M365.455 14.8945C365.49 14.6347 365.21 14.399 364.824 14.3772C364.437 14.3553 364.1 14.5457 364.064 14.8159C364.028 15.0861 364.31 15.3009 364.697 15.3228C365.083 15.3446 365.421 15.1542 365.455 14.8945Z" fill="#FD6060"/>
<path d="M380.168 15.9478C380.186 15.8129 380.046 15.7004 379.844 15.689C379.643 15.6777 379.474 15.7727 379.456 15.9076C379.438 16.0425 379.579 16.155 379.78 16.1664C379.981 16.1777 380.15 16.0827 380.168 15.9478Z" fill="#FD6060"/>
<path d="M333.926 22.4062C333.961 22.1463 333.68 21.921 333.293 21.8992C332.907 21.8773 332.569 22.0677 332.535 22.3276C332.5 22.5874 332.781 22.8128 333.168 22.8346C333.554 22.8564 333.893 22.6556 333.926 22.4062Z" fill="#FD6060"/>
<path d="M348.994 23.4799C349.029 23.2201 348.748 22.9947 348.361 22.9729C347.975 22.9511 347.637 23.1415 347.602 23.4013C347.568 23.6612 347.849 23.8865 348.236 23.9083C348.622 23.9302 348.961 23.7294 348.994 23.4799Z" fill="#FD6060"/>
<path d="M364.069 24.5583C364.088 24.4233 363.947 24.3108 363.745 24.2994C363.544 24.288 363.375 24.3831 363.357 24.5181C363.339 24.6531 363.481 24.7553 363.683 24.7666C363.884 24.778 364.053 24.6829 364.069 24.5583Z" fill="#FD6060"/>
<path d="M332.465 32.1514L332.492 32.3907C332.492 32.3907 332.529 32.3308 332.533 32.3C332.54 32.2487 332.517 32.1958 332.479 32.1522L332.465 32.1514Z" fill="#FD6060"/>
<g filter="url(#filter2_dii_2410_218723)">
<path fill-rule="evenodd" clip-rule="evenodd" d="M770 7C770 11.9706 774.701 16 780.5 16C774.701 16 770 20.0295 770 25C770 20.0295 765.299 16 759.5 16C765.299 16 770 11.9706 770 7Z" fill="#FEEA02"/>
<path d="M770 9.30762C770.96 12.5709 773.91 15.1209 777.636 16C773.911 16.8791 770.961 19.4286 770 22.6914C769.039 19.4283 766.089 16.8789 762.363 16C766.089 15.1211 769.039 12.5712 770 9.30762Z" stroke="#ED9A02" stroke-width="0.666667"/>
</g>
<g filter="url(#filter3_dii_2410_218723)">
<path fill-rule="evenodd" clip-rule="evenodd" d="M585.667 41C585.667 44.3137 588.801 47 592.667 47C588.801 47 585.667 49.6863 585.667 53C585.667 49.6863 582.533 47 578.667 47C582.533 47 585.667 44.3137 585.667 41Z" fill="#FEEA02"/>
<path d="M585.667 42.8975C586.369 44.8391 588.122 46.3584 590.323 47C588.122 47.6416 586.369 49.1609 585.667 51.1025C584.964 49.1607 583.211 47.6415 581.01 47C583.211 46.3585 584.964 44.8393 585.667 42.8975Z" stroke="#ED9A02" stroke-width="0.666667"/>
</g>
</g>
<defs>
<filter id="filter0_dii_2410_218723" x="1021.77" y="0.444444" width="17.1111" height="17.1111" filterUnits="userSpaceOnUse" color-interpolation-filters="sRGB">
<feFlood flood-opacity="0" result="BackgroundImageFix"/>
<feColorMatrix in="SourceAlpha" type="matrix" values="0 0 0 0 0 0 0 0 0 0 0 0 0 0 0 0 0 0 127 0" result="hardAlpha"/>
<feMorphology radius="1.03704" operator="dilate" in="SourceAlpha" result="effect1_dropShadow_2410_218723"/>
<feOffset/>
<feGaussianBlur stdDeviation="0.259259"/>
<feComposite in2="hardAlpha" operator="out"/>
<feColorMatrix type="matrix" values="0 0 0 0 0.933333 0 0 0 0 0.709804 0 0 0 0 0.0117647 0 0 0 1 0"/>
<feBlend mode="normal" in2="BackgroundImageFix" result="effect1_dropShadow_2410_218723"/>
<feBlend mode="normal" in="SourceGraphic" in2="effect1_dropShadow_2410_218723" result="shape"/>
<feColorMatrix in="SourceAlpha" type="matrix" values="0 0 0 0 0 0 0 0 0 0 0 0 0 0 0 0 0 0 127 0" result="hardAlpha"/>
<feMorphology radius="1.03704" operator="erode" in="SourceAlpha" result="effect2_innerShadow_2410_218723"/>
<feOffset/>
<feComposite in2="hardAlpha" operator="arithmetic" k2="-1" k3="1"/>
<feColorMatrix type="matrix" values="0 0 0 0 0.929412 0 0 0 0 0.772549 0 0 0 0 0.00784314 0 0 0 1 0"/>
<feBlend mode="normal" in2="shape" result="effect2_innerShadow_2410_218723"/>
<feColorMatrix in="SourceAlpha" type="matrix" values="0 0 0 0 0 0 0 0 0 0 0 0 0 0 0 0 0 0 127 0" result="hardAlpha"/>
<feOffset dy="-1.03704"/>
<feGaussianBlur stdDeviation="0.518519"/>
<feComposite in2="hardAlpha" operator="arithmetic" k2="-1" k3="1"/>
<feColorMatrix type="matrix" values="0 0 0 0 0.933333 0 0 0 0 0.643137 0 0 0 0 0.00784314 0 0 0 1 0"/>
<feBlend mode="normal" in2="effect2_innerShadow_2410_218723" result="effect3_innerShadow_2410_218723"/>
</filter>
<filter id="filter1_dii_2410_218723" x="1210.77" y="43.4444" width="17.1111" height="17.1111" filterUnits="userSpaceOnUse" color-interpolation-filters="sRGB">
<feFlood flood-opacity="0" result="BackgroundImageFix"/>
<feColorMatrix in="SourceAlpha" type="matrix" values="0 0 0 0 0 0 0 0 0 0 0 0 0 0 0 0 0 0 127 0" result="hardAlpha"/>
<feMorphology radius="1.03704" operator="dilate" in="SourceAlpha" result="effect1_dropShadow_2410_218723"/>
<feOffset/>
<feGaussianBlur stdDeviation="0.259259"/>
<feComposite in2="hardAlpha" operator="out"/>
<feColorMatrix type="matrix" values="0 0 0 0 0.933333 0 0 0 0 0.709804 0 0 0 0 0.0117647 0 0 0 1 0"/>
<feBlend mode="normal" in2="BackgroundImageFix" result="effect1_dropShadow_2410_218723"/>
<feBlend mode="normal" in="SourceGraphic" in2="effect1_dropShadow_2410_218723" result="shape"/>
<feColorMatrix in="SourceAlpha" type="matrix" values="0 0 0 0 0 0 0 0 0 0 0 0 0 0 0 0 0 0 127 0" result="hardAlpha"/>
<feMorphology radius="1.03704" operator="erode" in="SourceAlpha" result="effect2_innerShadow_2410_218723"/>
<feOffset/>
<feComposite in2="hardAlpha" operator="arithmetic" k2="-1" k3="1"/>
<feColorMatrix type="matrix" values="0 0 0 0 0.929412 0 0 0 0 0.772549 0 0 0 0 0.00784314 0 0 0 1 0"/>
<feBlend mode="normal" in2="shape" result="effect2_innerShadow_2410_218723"/>
<feColorMatrix in="SourceAlpha" type="matrix" values="0 0 0 0 0 0 0 0 0 0 0 0 0 0 0 0 0 0 127 0" result="hardAlpha"/>
<feOffset dy="-1.03704"/>
<feGaussianBlur stdDeviation="0.518519"/>
<feComposite in2="hardAlpha" operator="arithmetic" k2="-1" k3="1"/>
<feColorMatrix type="matrix" values="0 0 0 0 0.933333 0 0 0 0 0.643137 0 0 0 0 0.00784314 0 0 0 1 0"/>
<feBlend mode="normal" in2="effect2_innerShadow_2410_218723" result="effect3_innerShadow_2410_218723"/>
</filter>
<filter id="filter2_dii_2410_218723" x="757.5" y="5" width="25" height="22" filterUnits="userSpaceOnUse" color-interpolation-filters="sRGB">
<feFlood flood-opacity="0" result="BackgroundImageFix"/>
<feColorMatrix in="SourceAlpha" type="matrix" values="0 0 0 0 0 0 0 0 0 0 0 0 0 0 0 0 0 0 127 0" result="hardAlpha"/>
<feMorphology radius="1.33333" operator="dilate" in="SourceAlpha" result="effect1_dropShadow_2410_218723"/>
<feOffset/>
<feGaussianBlur stdDeviation="0.333333"/>
<feComposite in2="hardAlpha" operator="out"/>
<feColorMatrix type="matrix" values="0 0 0 0 0.933333 0 0 0 0 0.709804 0 0 0 0 0.0117647 0 0 0 1 0"/>
<feBlend mode="normal" in2="BackgroundImageFix" result="effect1_dropShadow_2410_218723"/>
<feBlend mode="normal" in="SourceGraphic" in2="effect1_dropShadow_2410_218723" result="shape"/>
<feColorMatrix in="SourceAlpha" type="matrix" values="0 0 0 0 0 0 0 0 0 0 0 0 0 0 0 0 0 0 127 0" result="hardAlpha"/>
<feMorphology radius="1.33333" operator="erode" in="SourceAlpha" result="effect2_innerShadow_2410_218723"/>
<feOffset/>
<feComposite in2="hardAlpha" operator="arithmetic" k2="-1" k3="1"/>
<feColorMatrix type="matrix" values="0 0 0 0 0.929412 0 0 0 0 0.772549 0 0 0 0 0.00784314 0 0 0 1 0"/>
<feBlend mode="normal" in2="shape" result="effect2_innerShadow_2410_218723"/>
<feColorMatrix in="SourceAlpha" type="matrix" values="0 0 0 0 0 0 0 0 0 0 0 0 0 0 0 0 0 0 127 0" result="hardAlpha"/>
<feOffset dy="-1.33333"/>
<feGaussianBlur stdDeviation="0.666667"/>
<feComposite in2="hardAlpha" operator="arithmetic" k2="-1" k3="1"/>
<feColorMatrix type="matrix" values="0 0 0 0 0.933333 0 0 0 0 0.643137 0 0 0 0 0.00784314 0 0 0 1 0"/>
<feBlend mode="normal" in2="effect2_innerShadow_2410_218723" result="effect3_innerShadow_2410_218723"/>
</filter>
<filter id="filter3_dii_2410_218723" x="576.667" y="39" width="18" height="16" filterUnits="userSpaceOnUse" color-interpolation-filters="sRGB">
<feFlood flood-opacity="0" result="BackgroundImageFix"/>
<feColorMatrix in="SourceAlpha" type="matrix" values="0 0 0 0 0 0 0 0 0 0 0 0 0 0 0 0 0 0 127 0" result="hardAlpha"/>
<feMorphology radius="1.33333" operator="dilate" in="SourceAlpha" result="effect1_dropShadow_2410_218723"/>
<feOffset/>
<feGaussianBlur stdDeviation="0.333333"/>
<feComposite in2="hardAlpha" operator="out"/>
<feColorMatrix type="matrix" values="0 0 0 0 0.933333 0 0 0 0 0.709804 0 0 0 0 0.0117647 0 0 0 1 0"/>
<feBlend mode="normal" in2="BackgroundImageFix" result="effect1_dropShadow_2410_218723"/>
<feBlend mode="normal" in="SourceGraphic" in2="effect1_dropShadow_2410_218723" result="shape"/>
<feColorMatrix in="SourceAlpha" type="matrix" values="0 0 0 0 0 0 0 0 0 0 0 0 0 0 0 0 0 0 127 0" result="hardAlpha"/>
<feMorphology radius="1.33333" operator="erode" in="SourceAlpha" result="effect2_innerShadow_2410_218723"/>
<feOffset/>
<feComposite in2="hardAlpha" operator="arithmetic" k2="-1" k3="1"/>
<feColorMatrix type="matrix" values="0 0 0 0 0.929412 0 0 0 0 0.772549 0 0 0 0 0.00784314 0 0 0 1 0"/>
<feBlend mode="normal" in2="shape" result="effect2_innerShadow_2410_218723"/>
<feColorMatrix in="SourceAlpha" type="matrix" values="0 0 0 0 0 0 0 0 0 0 0 0 0 0 0 0 0 0 127 0" result="hardAlpha"/>
<feOffset dy="-1.33333"/>
<feGaussianBlur stdDeviation="0.666667"/>
<feComposite in2="hardAlpha" operator="arithmetic" k2="-1" k3="1"/>
<feColorMatrix type="matrix" values="0 0 0 0 0.933333 0 0 0 0 0.643137 0 0 0 0 0.00784314 0 0 0 1 0"/>
<feBlend mode="normal" in2="effect2_innerShadow_2410_218723" result="effect3_innerShadow_2410_218723"/>
</filter>
<linearGradient id="paint0_linear_2410_218723" x1="42.5833" y1="0.000655649" x2="1678.92" y2="81.6127" gradientUnits="userSpaceOnUse">
<stop stop-color="#32BAF9"/>
<stop offset="0.5" stop-color="#130F83"/>
<stop offset="1" stop-color="#32BAF9"/>
</linearGradient>
<linearGradient id="paint1_linear_2410_218723" x1="621.866" y1="-44.1273" x2="1321.98" y2="30.4254" gradientUnits="userSpaceOnUse">
<stop stop-color="#B30000"/>
<stop offset="1" stop-color="#EE3D3D"/>
</linearGradient>
<linearGradient id="paint2_linear_2410_218723" x1="217.535" y1="-24.2225" x2="768.027" y2="42.2196" gradientUnits="userSpaceOnUse">
<stop stop-color="#B30000"/>
<stop offset="1" stop-color="#EE3D3D"/>
</linearGradient>
<clipPath id="clip0_2410_218723">
<rect width="1680" height="60" fill="white"/>
</clipPath>
</defs>
</svg>
