<svg width="50" height="48" viewBox="0 0 50 48" fill="none" xmlns="http://www.w3.org/2000/svg">
<path d="M5.8461 32.1555C6.04823 32.9474 6.25036 33.6826 6.47087 34.5122C6.30549 34.3613 6.19523 34.2671 6.08498 34.1728C5.05595 33.2679 3.91666 32.8719 2.61199 32.9662C1.93209 33.0228 1.72996 33.2867 1.91372 34.022C2.42823 36.0581 3.38377 37.7549 4.98244 38.9049C5.95635 39.6025 7.02213 39.7345 8.1063 39.282C8.36355 39.1689 8.47381 39.2443 8.62081 39.4894C8.91482 40.055 9.24558 40.5829 9.61309 41.205C9.31909 41.0919 9.0802 40.9976 8.82294 40.9222C7.62853 40.5452 6.48924 40.696 5.38671 41.3747C4.96407 41.6386 4.87219 41.9026 5.0927 42.2985C6.02985 43.9576 7.24264 45.2773 8.9332 45.8994C10.146 46.3331 11.3036 46.0126 12.3143 45.1076C12.3878 45.051 12.4613 44.9756 12.5164 44.9379C13.3617 45.6355 14.1702 46.3331 14.9971 47.0118C15.1625 47.1626 15.3647 47.2757 15.5484 47.4077C15.824 47.5962 16.0813 47.6151 16.3018 47.2946C16.4856 47.0118 16.3753 46.7101 16.0629 46.4462C15.1809 45.7298 14.2989 44.9945 13.4352 44.2592C13.3433 44.165 13.2515 43.901 13.2882 43.7879C14.2989 41.3935 14.06 39.0369 13.1412 36.6991C13.1045 36.6049 13.0677 36.5106 13.031 36.4163C12.6267 35.436 12.3878 35.3983 11.7079 36.1147C10.6789 37.227 10.1827 38.5656 10.2379 40.2435C9.92548 39.6968 9.59472 39.15 9.26396 38.5844C9.99898 37.736 10.5319 36.7745 10.8259 35.6622C11.2669 34.022 11.1934 32.3629 10.9178 30.7038C10.8443 30.2325 10.5503 30.1005 10.1092 30.2891C8.74944 30.9112 7.84904 32.0047 7.48153 33.6449C7.48153 33.7203 7.44477 33.7769 7.38965 33.9843C7.26102 33.5507 7.16914 33.2302 7.09564 32.9096C7.00376 32.5891 6.94863 32.2686 6.85675 31.9293C6.89351 31.8916 6.89351 31.835 6.93026 31.8162C8.78619 30.685 9.74172 28.8374 10.146 26.5373C10.2195 26.066 10.2746 25.5946 10.3297 25.1422C10.4216 24.4635 10.2011 24.1995 9.59472 24.2749C8.19817 24.4635 7.05889 25.1422 6.32386 26.5562C6.30549 26.5939 6.26874 26.6316 6.19523 26.7258V24.5954C6.52599 24.5012 6.85675 24.4069 7.16914 24.2938C8.56569 23.7847 9.55797 22.729 10.2746 21.3338C10.6054 20.6928 10.881 20.0141 11.1566 19.3354C11.3588 18.8264 11.2118 18.5247 10.734 18.3928C9.33746 18.0345 8.06954 18.2419 6.96701 19.3543C6.93026 19.392 6.87513 19.4108 6.76488 19.5051C6.94863 18.7698 7.11401 18.11 7.27939 17.4313C7.95929 17.4313 8.62081 17.5067 9.26396 17.4313C10.4584 17.2427 11.3955 16.4697 12.2592 15.5648C12.6451 15.15 12.9758 14.6975 13.325 14.2451C13.6741 13.7926 13.619 13.4721 13.1596 13.1704C11.8733 12.3221 10.5503 12.0958 9.1537 12.8688C9.35584 11.9827 10.146 10.8892 10.8443 10.5687C13.3617 9.36212 15.0706 7.21287 16.2651 4.49802C16.5039 3.95128 16.2651 3.57422 15.677 3.57422C13.8946 3.57422 12.3694 4.25293 11.1566 5.78003C10.2562 6.89236 9.7601 8.23094 9.50284 9.70148C9.44771 10.0408 9.31909 10.3613 9.1537 10.6441C8.91482 11.1343 8.62081 11.5868 8.34518 12.077C8.27168 11.3794 8.23492 10.6818 8.12467 10.0031C7.95929 9.00391 7.62853 8.06126 7.09564 7.23172C6.70975 6.62842 6.43412 6.60957 6.04823 7.23172C5.29483 8.43832 4.87219 9.79574 4.61493 11.2474C4.4128 12.4352 4.43118 13.5852 4.81706 14.7164C5.0927 15.5459 5.55209 16.2247 6.15848 16.8091C6.26874 16.9034 6.34224 17.1485 6.30549 17.2993C6.17686 17.9591 5.9931 18.6001 5.80935 19.3166C5.73584 19.0715 5.68072 18.8829 5.62559 18.7133C5.20295 17.2239 4.4863 15.9796 3.36539 15.0746C2.86925 14.6787 2.57524 14.773 2.40986 15.4328C1.87697 17.4878 1.76671 19.5616 2.40986 21.6166C2.8325 22.9741 3.67778 23.9544 4.89057 24.4446C5.11107 24.5389 5.20295 24.652 5.18458 24.9348C5.1662 25.6135 5.18458 26.2734 5.18458 27.0275C5.07432 26.8578 5.00082 26.7447 4.92732 26.6316C4.17392 25.3307 3.14488 24.4258 1.82184 24.011C1.27057 23.8413 0.976562 23.9921 0.976562 24.5389C0.976562 26.8201 1.36245 28.9882 2.70387 30.7792C3.5124 31.8539 4.59656 32.3252 5.86447 32.2498L5.8461 32.1555Z" fill="#221AE9"/>
<path d="M43.998 32.1555C43.7959 32.9474 43.5937 33.6826 43.3732 34.5122C43.5386 34.3613 43.6489 34.2671 43.7591 34.1728C44.7882 33.2679 45.9274 32.8719 47.2321 32.9662C47.912 33.0228 48.1141 33.2867 47.9304 34.022C47.4159 36.0581 46.4603 37.7549 44.8617 38.9049C43.8878 39.6025 42.822 39.7345 41.7378 39.282C41.4806 39.1689 41.3703 39.2443 41.2233 39.4894C40.9293 40.055 40.5985 40.5829 40.231 41.205C40.525 41.0919 40.7639 40.9976 41.0212 40.9222C42.2156 40.5452 43.3549 40.696 44.4574 41.3747C44.88 41.6386 44.9719 41.9026 44.7514 42.2985C43.8143 43.9576 42.6015 45.2773 40.9109 45.8994C39.6981 46.3331 38.5405 46.0126 37.5298 45.1076C37.4563 45.051 37.3828 44.9756 37.3277 44.9379C36.4824 45.6355 35.6739 46.3331 34.847 47.0118C34.6816 47.1626 34.4794 47.2757 34.2957 47.4077C34.0201 47.5962 33.7628 47.6151 33.5423 47.2946C33.3585 47.0118 33.4688 46.7101 33.7812 46.4462C34.6632 45.7298 35.5452 44.9945 36.4089 44.2592C36.5008 44.165 36.5926 43.901 36.5559 43.7879C35.5452 41.3935 35.7841 39.0369 36.7029 36.6991C36.7396 36.6049 36.7764 36.5106 36.8132 36.4163C37.2174 35.436 37.4563 35.3983 38.1362 36.1147C39.1652 37.227 39.6614 38.5656 39.6062 40.2435C39.9186 39.6968 40.2494 39.15 40.5801 38.5844C39.8451 37.736 39.3122 36.7745 39.0182 35.6622C38.5772 34.022 38.6507 32.3629 38.9263 30.7038C38.9998 30.2325 39.2939 30.1005 39.7349 30.2891C41.0947 30.9112 41.9951 32.0047 42.3626 33.6449C42.3626 33.7203 42.3993 33.7769 42.4545 33.9843C42.5831 33.5507 42.675 33.2302 42.7485 32.9096C42.8403 32.5891 42.8955 32.2686 42.9874 31.9293C42.9506 31.8916 42.9506 31.835 42.9138 31.8162C41.0579 30.685 40.1024 28.8374 39.6981 26.5373C39.6246 26.066 39.5695 25.5946 39.5144 25.1422C39.4225 24.4635 39.643 24.1995 40.2494 24.2749C41.6459 24.4635 42.7852 25.1422 43.5202 26.5562C43.5386 26.5939 43.5754 26.6316 43.6489 26.7258V24.5954C43.3181 24.5012 42.9874 24.4069 42.675 24.2938C41.2784 23.7847 40.2861 22.729 39.5695 21.3338C39.2387 20.6928 38.9631 20.0141 38.6875 19.3354C38.4853 18.8264 38.6323 18.5247 39.1101 18.3928C40.5066 18.0345 41.7746 18.2419 42.8771 19.3543C42.9138 19.392 42.969 19.4108 43.0792 19.5051C42.8955 18.7698 42.7301 18.11 42.5647 17.4313C41.8848 17.4313 41.2233 17.5067 40.5801 17.4313C39.3857 17.2427 38.4486 16.4697 37.5849 15.5648C37.199 15.15 36.8683 14.6975 36.5191 14.2451C36.17 13.7926 36.2251 13.4721 36.6845 13.1704C37.9708 12.3221 39.2939 12.0958 40.6904 12.8688C40.4883 11.9827 39.6981 10.8892 38.9998 10.5687C36.4824 9.36212 34.7735 7.21287 33.579 4.49802C33.3402 3.95128 33.579 3.57422 34.1671 3.57422C35.9495 3.57422 37.4747 4.25293 38.6875 5.78003C39.5879 6.89236 40.084 8.23094 40.3413 9.70148C40.3964 10.0408 40.525 10.3613 40.6904 10.6441C40.9293 11.1343 41.2233 11.5868 41.4989 12.077C41.5724 11.3794 41.6092 10.6818 41.7194 10.0031C41.8848 9.00391 42.2156 8.06126 42.7485 7.23172C43.1344 6.62842 43.41 6.60957 43.7959 7.23172C44.5493 8.43832 44.9719 9.79574 45.2292 11.2474C45.4313 12.4352 45.4129 13.5852 45.027 14.7164C44.7514 15.5459 44.292 16.2247 43.6856 16.8091C43.5754 16.9034 43.5019 17.1485 43.5386 17.2993C43.6672 17.9591 43.851 18.6001 44.0348 19.3166C44.1083 19.0715 44.1634 18.8829 44.2185 18.7133C44.6412 17.2239 45.3578 15.9796 46.4787 15.0746C46.9749 14.6787 47.2689 14.773 47.4342 15.4328C47.9671 17.4878 48.0774 19.5616 47.4342 21.6166C47.0116 22.9741 46.1663 23.9544 44.9535 24.4446C44.733 24.5389 44.6412 24.652 44.6595 24.9348C44.6779 25.6135 44.6595 26.2734 44.6595 27.0275C44.7698 26.8578 44.8433 26.7447 44.9168 26.6316C45.6702 25.3307 46.6992 24.4258 48.0223 24.011C48.5735 23.8413 48.8675 23.9921 48.8675 24.5389C48.8675 26.8201 48.4817 28.9882 47.1402 30.7792C46.3317 31.8539 45.2476 32.3252 43.9796 32.2498L43.998 32.1555Z" fill="#221AE9"/>
<path d="M36.3673 19.5049C36.2203 19.4672 36.0733 19.4295 35.8895 19.4295C35.0442 19.4295 34.199 19.4295 33.2802 19.4295C33.225 19.3164 33.2067 19.2598 33.1883 19.2221C33.1883 19.0336 33.1883 18.8639 33.1883 18.6754C33.1883 17.4311 33.0597 17.1106 32.1776 17.0352C32.1776 17.0352 32.1593 17.0352 32.1409 17.0352C32.1409 17.0352 32.1225 17.0352 32.1041 17.0352C31.9571 17.0352 31.7917 17.0352 31.608 17.0352C29.4029 17.0352 27.1978 17.0352 24.9928 17.0352C22.7877 17.0352 20.5826 17.0352 18.3776 17.0352C18.1938 17.0352 18.0284 17.0352 17.8814 17.0352C17.8814 17.0352 17.863 17.0352 17.8447 17.0352C17.8447 17.0352 17.8263 17.0352 17.8079 17.0352C16.9259 17.1106 16.7973 17.4311 16.7973 18.6754C16.7973 18.8639 16.7973 19.0336 16.7973 19.2221C16.7973 19.2598 16.7605 19.3164 16.7054 19.4295C15.7866 19.4295 14.9229 19.4295 14.096 19.4295C13.9307 19.4295 13.7653 19.4484 13.6183 19.5049C12.9751 19.5992 12.8281 19.9197 12.8281 20.8435C12.8465 23.2944 13.3794 25.5756 14.8127 27.6306C14.8127 27.6306 16.0439 28.7618 16.5216 28.8561C16.5767 28.8561 16.6135 28.8561 16.6686 28.8938C16.7054 28.8938 16.7238 28.8938 16.7605 28.8938C17.128 29.0069 17.5323 29.0634 17.9733 29.0257C18.984 28.9315 19.5352 29.2708 20.1232 29.8741C20.1967 29.9684 20.2519 30.0627 20.3254 30.1569C21.6668 31.8537 21.7954 33.6824 21.0604 35.662C21.0236 35.7563 20.9685 35.8317 20.895 35.9071C20.8031 35.9825 20.7113 36.0768 20.601 36.1145C19.5168 36.6047 18.8921 37.4719 18.8737 38.6785C18.8737 39.1498 18.8737 39.6023 18.8737 40.0736C18.8737 40.9032 19.131 41.2048 19.8109 41.2614C19.9027 41.2614 19.9762 41.2991 20.0681 41.2991C20.6194 41.2991 21.1706 41.2991 21.7219 41.2991C22.2916 41.2991 22.8612 41.2991 23.4308 41.2991C23.7065 41.2991 23.9821 41.2991 24.2577 41.2991C24.4966 41.2991 24.7355 41.2991 24.9744 41.2991C25.2133 41.2991 25.4522 41.2991 25.691 41.2991C25.9667 41.2991 26.2423 41.2991 26.5179 41.2991C27.0876 41.2991 27.6572 41.2991 28.2269 41.2991C28.7781 41.2991 29.3294 41.2991 29.8807 41.2991C29.9726 41.2991 30.0644 41.2802 30.1379 41.2614C30.8178 41.2048 31.0567 40.9032 31.0751 40.0736C31.0751 39.6023 31.0751 39.1498 31.0751 38.6785C31.0567 37.4719 30.432 36.6047 29.3478 36.1145C29.2559 36.0768 29.164 35.9825 29.0538 35.9071C28.9803 35.8317 28.9252 35.7563 28.8884 35.662C28.1534 33.7013 28.282 31.8537 29.6234 30.1569C29.6969 30.0627 29.7704 29.9684 29.8256 29.8741C30.4136 29.2708 30.9648 28.9315 31.9755 29.0257C32.4165 29.0634 32.8208 29.0257 33.1883 28.8938C33.225 28.8938 33.2434 28.8938 33.2802 28.8938C33.3353 28.8749 33.372 28.8749 33.4272 28.8561C33.9049 28.7618 35.1361 27.6306 35.1361 27.6306C36.5694 25.5756 37.1023 23.2944 37.1207 20.8435C37.1207 19.9197 36.9737 19.5992 36.3305 19.5049H36.3673ZM16.4114 26.3863C15.217 24.9723 14.9597 23.219 14.8127 21.3337H16.6503C16.6503 21.3337 16.687 21.3337 16.7054 21.3337C16.8708 21.3525 17.0545 21.8238 17.1096 22.1066C17.3301 23.596 17.6425 25.0477 18.1754 26.4429C18.2306 26.6879 18.3041 26.9519 18.3592 27.197C17.569 27.4421 16.9443 26.9896 16.4297 26.3863H16.4114ZM31.6631 27.197C31.7182 26.9519 31.7917 26.6879 31.8469 26.4429C32.3798 25.0477 32.7105 23.596 32.9127 22.1066C32.9494 21.8238 33.1332 21.3525 33.3169 21.3337C33.3169 21.3337 33.3537 21.3337 33.372 21.3337H35.2096C35.0626 23.219 34.8053 24.9723 33.6109 26.3863C33.0964 26.9896 32.4716 27.4421 31.6815 27.197H31.6631Z" fill="#221AE9"/>
<path d="M21.1638 13.3766C19.7121 13.3766 18.2604 13.3766 16.8088 13.3766H16.625C16.6618 13.7537 16.8639 14.0365 17.0844 14.3004C17.4703 14.734 17.8562 15.1865 18.2421 15.639C18.2972 15.639 18.3339 15.639 18.3891 15.639C19.657 15.639 20.9065 15.639 22.1744 15.639C21.9172 14.9414 21.6415 14.225 21.3843 13.5274C21.3475 13.4143 21.274 13.3955 21.1638 13.3955V13.3766ZM28.808 13.3766C28.6794 13.3766 28.6426 13.452 28.6243 13.5463C28.367 14.2438 28.1098 14.9414 27.8341 15.6201C29.102 15.6201 30.3699 15.6201 31.6379 15.6201C31.6746 15.6201 31.7114 15.6201 31.7481 15.6201C32.1524 15.1488 32.575 14.6775 32.9793 14.2061C33.1814 13.9799 33.3284 13.716 33.3835 13.3766C33.3284 13.3766 33.31 13.3766 33.2733 13.3766C31.7849 13.3766 30.2964 13.3766 28.808 13.3766ZM21.9539 13.3955C22.2296 14.1496 22.5236 14.8849 22.7992 15.639H27.2093C27.485 14.8849 27.779 14.1496 28.0546 13.3955H21.9539ZM22.0274 12.7733H27.9811C27.9811 12.7733 27.9444 12.6979 27.9444 12.679C27.4115 11.661 26.8602 10.6429 26.3273 9.62484C26.2722 9.53057 26.2171 9.51172 26.1252 9.51172C25.3902 9.51172 24.6551 9.51172 23.9201 9.51172C23.7915 9.51172 23.7364 9.54942 23.6812 9.66254C23.2218 10.5298 22.7625 11.397 22.3031 12.2643C22.2112 12.4339 22.1193 12.6036 22.0274 12.7922V12.7733ZM28.6059 12.679C28.6059 12.679 28.7345 12.7733 28.7896 12.7733C29.3042 12.7733 29.8187 12.7733 30.3332 12.7733H33.4019C33.2917 12.5471 33.1998 12.3397 33.0895 12.17C32.6485 11.5101 32.1891 10.8691 31.7481 10.2093C31.4357 9.73796 30.9947 9.51172 30.4251 9.51172C29.3225 9.51172 28.22 9.51172 27.1175 9.51172H26.9153C26.9153 9.51172 26.9337 9.58713 26.9521 9.60598C27.5034 10.6241 28.0362 11.661 28.5875 12.679H28.6059ZM21.2189 12.7922C21.3292 12.7922 21.3843 12.7545 21.421 12.6602C21.9539 11.661 22.4868 10.6618 23.0013 9.6814C23.0197 9.64369 23.0381 9.58713 23.0565 9.54942C23.0197 9.54942 23.0197 9.54942 23.0013 9.54942C21.8069 9.54942 20.6125 9.54942 19.4181 9.54942C18.9771 9.54942 18.6096 9.75681 18.3523 10.115C17.8378 10.8503 17.3233 11.6044 16.8271 12.3585C16.7353 12.4905 16.6985 12.6413 16.625 12.811C16.6801 12.811 16.6985 12.811 16.7169 12.811C18.2237 12.811 19.7121 12.811 21.2189 12.811V12.7922Z" fill="#221AE9"/>
<path d="M19.0363 38.998H30.9621C31.6787 38.998 32.2667 39.6013 32.2667 40.3366V44.1072H17.75V40.3366C17.75 39.6013 18.338 38.998 19.0547 38.998H19.0363Z" fill="#221AE9"/>
</svg>
